<svg width="184" height="57" viewBox="0 0 184 57" fill="none" xmlns="http://www.w3.org/2000/svg">
<path fill-rule="evenodd" clip-rule="evenodd" d="M28.4148 4.46205e-07C34.0362 -0.000996846 39.5316 1.66978 44.206 4.80101C48.8803 7.93225 52.5238 12.3833 54.6754 17.5912C56.8271 22.7991 57.3903 28.5299 56.2939 34.0588C55.1975 39.5878 52.4906 44.6664 48.5157 48.6525C44.5408 52.6386 39.4765 55.3531 33.9631 56.4526C28.4497 57.5521 22.735 56.9873 17.5417 54.8296C12.3485 52.6719 7.90995 49.0182 4.78752 44.3306C1.66508 39.643 -0.000994044 34.1321 4.44951e-07 28.495C4.44951e-07 20.9376 2.9937 13.6898 8.32251 8.34598C13.6513 3.00214 20.8787 4.46205e-07 28.4148 4.46205e-07Z" fill="#E2001A"/>
<path fill-rule="evenodd" clip-rule="evenodd" d="M94.6474 8.57284C94.6481 8.47749 94.63 8.38294 94.5942 8.29459C94.5585 8.20624 94.5057 8.12582 94.4389 8.05792C94.3721 7.99003 94.2927 7.93599 94.2051 7.89889C94.1175 7.86178 94.0235 7.84235 93.9284 7.84169H89.7901C89.5985 7.84434 89.4156 7.92254 89.2811 8.05937C89.1465 8.1962 89.0711 8.38066 89.0711 8.57284V20.7655C89.0711 28.4048 105.735 28.4048 105.735 20.7655V8.57284C105.735 8.47749 105.717 8.38294 105.682 8.29459C105.646 8.20624 105.593 8.12582 105.526 8.05792C105.46 7.99003 105.38 7.93599 105.292 7.89889C105.205 7.86178 105.111 7.84235 105.016 7.84169H100.877C100.686 7.84434 100.503 7.92254 100.368 8.05937C100.234 8.1962 100.158 8.38066 100.158 8.57284V20.0495C100.158 22.3136 94.6273 22.3136 94.6273 20.0495L94.6474 8.57284ZM146.067 25.4096C146.066 25.505 146.084 25.5995 146.12 25.6879C146.156 25.7762 146.208 25.8567 146.275 25.9245C146.342 25.9924 146.421 26.0465 146.509 26.0836C146.597 26.1207 146.691 26.1401 146.786 26.1408H150.924C151.019 26.1401 151.113 26.1207 151.201 26.0836C151.288 26.0465 151.368 25.9924 151.435 25.9245C151.501 25.8567 151.554 25.7762 151.59 25.6879C151.626 25.5995 151.644 25.505 151.643 25.4096V8.57284C151.644 8.47749 151.626 8.38294 151.59 8.29459C151.554 8.20624 151.501 8.12582 151.435 8.05792C151.368 7.99003 151.288 7.93599 151.201 7.89889C151.113 7.86178 151.019 7.84235 150.924 7.84169H146.786C146.691 7.84235 146.597 7.86178 146.509 7.89889C146.421 7.93599 146.342 7.99003 146.275 8.05792C146.208 8.12582 146.156 8.20624 146.12 8.29459C146.084 8.38294 146.066 8.47749 146.067 8.57284V25.4096ZM122.187 8.18962C122.4 8.26508 122.584 8.40519 122.714 8.59045C122.844 8.77571 122.913 8.99693 122.911 9.22332V12.2488C122.913 12.3706 122.884 12.4908 122.826 12.5983C122.769 12.7058 122.686 12.7972 122.585 12.864C122.485 12.9333 122.369 12.9749 122.248 12.9846C122.127 12.9944 122.005 12.9719 121.896 12.9194C120.493 12.2841 113.896 11.2706 113.981 13.4691C114.031 14.7347 115.54 14.644 116.46 14.6591C120.307 14.7398 124.279 15.6676 124.279 20.4579C124.279 23.2363 122.851 25.0768 120.88 25.7878C118.215 26.756 112.598 26.7308 109.898 25.7878C109.685 25.7121 109.5 25.5712 109.37 25.3849C109.24 25.1987 109.172 24.9763 109.174 24.7491V21.7236C109.172 21.6017 109.201 21.4813 109.259 21.3738C109.316 21.2662 109.399 21.1749 109.501 21.1084C109.601 21.0419 109.716 21.0019 109.836 20.9922C109.955 20.9825 110.075 21.0034 110.185 21.0529C111.593 21.6883 118.632 22.7069 118.542 20.5033C118.492 19.1973 117.119 19.2931 116.168 19.283C112.282 19.2477 108.249 18.1434 108.249 13.5195C108.249 10.7411 109.677 8.9006 111.648 8.18458C114.298 7.20634 119.467 7.23155 122.187 8.18962ZM84.7417 8.18962C84.955 8.26443 85.1395 8.40438 85.2694 8.58979C85.3993 8.7752 85.468 8.99675 85.4658 9.22332V12.2488C85.4681 12.3708 85.4393 12.4913 85.3821 12.599C85.3249 12.7066 85.2412 12.7979 85.139 12.864C85.0402 12.9333 84.9247 12.975 84.8045 12.9847C84.6843 12.9945 84.5637 12.9719 84.4551 12.9194C83.0522 12.2841 76.4551 11.2706 76.5406 13.4691C76.5909 14.7347 78.0943 14.644 79.0145 14.6591C82.8662 14.7398 86.8385 15.6676 86.8385 20.4579C86.8385 23.2363 85.4105 25.0768 83.4344 25.7878C80.7744 26.756 75.1578 26.7308 72.4576 25.7878C72.244 25.7121 72.0593 25.5712 71.9294 25.3849C71.7996 25.1987 71.7311 24.9763 71.7336 24.7491V21.7236C71.7317 21.6017 71.7608 21.4813 71.8179 21.3738C71.8751 21.2662 71.9585 21.1749 72.0604 21.1084C72.1604 21.0419 72.2756 21.0019 72.3952 20.9922C72.5148 20.9825 72.6349 21.0034 72.7442 21.0529C74.1471 21.6883 81.1867 22.7069 81.1012 20.5033C81.051 19.1973 79.6732 19.2931 78.7279 19.283C74.841 19.2477 70.8083 18.1434 70.8083 13.5195C70.8083 10.7411 72.2314 8.9006 74.2075 8.18458C76.8574 7.20634 82.0264 7.23155 84.7266 8.18962H84.7417ZM137.614 14.7095H132.013V8.57284C132.013 8.3798 131.936 8.19459 131.801 8.05761C131.665 7.92064 131.481 7.84302 131.289 7.84169H127.15C127.055 7.84235 126.961 7.86178 126.874 7.89889C126.786 7.93599 126.707 7.99003 126.64 8.05792C126.573 8.12582 126.52 8.20624 126.484 8.29459C126.449 8.38294 126.431 8.47749 126.431 8.57284V25.4096C126.431 25.505 126.449 25.5995 126.484 25.6879C126.52 25.7762 126.573 25.8567 126.64 25.9245C126.707 25.9924 126.786 26.0465 126.874 26.0836C126.961 26.1207 127.055 26.1401 127.15 26.1408H131.289C131.481 26.1395 131.665 26.0618 131.801 25.9249C131.936 25.7879 132.013 25.6027 132.013 25.4096V19.283H137.614V25.4096C137.614 25.6018 137.69 25.7863 137.824 25.9231C137.959 26.0599 138.142 26.1381 138.333 26.1408H142.476C142.668 26.1381 142.851 26.0599 142.986 25.9231C143.12 25.7863 143.196 25.6018 143.196 25.4096V8.57284C143.196 8.38066 143.12 8.1962 142.986 8.05937C142.851 7.92254 142.668 7.84434 142.476 7.84169H138.333C138.142 7.84434 137.959 7.92254 137.824 8.05937C137.69 8.1962 137.614 8.38066 137.614 8.57284V14.7095Z" fill="#1A171B"/>
<path fill-rule="evenodd" clip-rule="evenodd" d="M107.304 41.5953L105.358 35.3477L103.417 41.5953H107.304ZM156.279 35.4486H164.098C164.193 35.4479 164.287 35.4285 164.375 35.3914C164.462 35.3543 164.542 35.3002 164.609 35.2323C164.675 35.1644 164.728 35.084 164.764 34.9957C164.8 34.9073 164.818 34.8128 164.817 34.7174V31.6062C164.818 31.5108 164.8 31.4163 164.764 31.3279C164.728 31.2396 164.675 31.1592 164.609 31.0913C164.542 31.0234 164.462 30.9693 164.375 30.9322C164.287 30.8951 164.193 30.8757 164.098 30.875H152.498C152.017 30.879 151.558 31.074 151.22 31.4171C150.883 31.7602 150.695 32.2235 150.698 32.7055V47.3286C150.695 47.8105 150.883 48.2738 151.22 48.617C151.558 48.9601 152.017 49.155 152.498 49.159H164.098C164.193 49.1583 164.287 49.1389 164.375 49.1018C164.462 49.0647 164.542 49.0107 164.609 48.9428C164.675 48.8749 164.728 48.7945 164.764 48.7061C164.8 48.6178 164.818 48.5232 164.817 48.4279V45.3267C164.818 45.2314 164.8 45.1368 164.764 45.0485C164.728 44.9601 164.675 44.8797 164.609 44.8118C164.542 44.7439 164.462 44.6899 164.375 44.6528C164.287 44.6157 164.193 44.5962 164.098 44.5956H156.279V42.3113H163.077C163.27 42.3087 163.453 42.2298 163.588 42.0919C163.723 41.954 163.798 41.7682 163.796 41.5751V38.469C163.798 38.2759 163.723 38.0902 163.588 37.9523C163.453 37.8143 163.27 37.7354 163.077 37.7328H156.279V35.4486ZM172.812 35.4486V40.0221H176.618C179.077 40.0221 179.077 35.4486 176.618 35.4486H172.812ZM133.29 35.4486H137.815V48.4379C137.814 48.5333 137.833 48.6278 137.868 48.7162C137.904 48.8046 137.957 48.885 138.024 48.9529C138.09 49.0208 138.17 49.0748 138.257 49.1119C138.345 49.149 138.439 49.1684 138.534 49.1691H142.672C142.768 49.1684 142.862 49.149 142.949 49.1119C143.037 49.0748 143.116 49.0208 143.183 48.9529C143.25 48.885 143.303 48.8046 143.338 48.7162C143.374 48.6278 143.392 48.5333 143.392 48.4379V35.4486H147.917C148.012 35.4479 148.106 35.4285 148.194 35.3914C148.281 35.3543 148.361 35.3002 148.428 35.2323C148.494 35.1644 148.547 35.084 148.583 34.9957C148.619 34.9073 148.637 34.8128 148.636 34.7174V31.6062C148.637 31.5108 148.619 31.4163 148.583 31.3279C148.547 31.2396 148.494 31.1592 148.428 31.0913C148.361 31.0234 148.281 30.9693 148.194 30.9322C148.106 30.8951 148.012 30.8757 147.917 30.875H133.29C133.195 30.8757 133.101 30.8951 133.013 30.9322C132.925 30.9693 132.846 31.0234 132.779 31.0913C132.712 31.1592 132.66 31.2396 132.624 31.3279C132.588 31.4163 132.57 31.5108 132.571 31.6062V34.7174C132.57 34.8128 132.588 34.9073 132.624 34.9957C132.66 35.084 132.712 35.1644 132.779 35.2323C132.846 35.3002 132.925 35.3543 133.013 35.3914C133.101 35.4285 133.195 35.4479 133.29 35.4486ZM129.639 31.2129C129.856 31.2897 130.043 31.4337 130.173 31.624C130.303 31.8143 130.37 32.0411 130.363 32.2718V35.2973C130.365 35.4191 130.335 35.5393 130.278 35.6468C130.221 35.7543 130.138 35.8456 130.036 35.9125C129.936 35.979 129.821 36.019 129.702 36.0287C129.582 36.0384 129.462 36.0175 129.353 35.9679C127.95 35.2973 121.353 34.2888 121.438 36.5024C121.483 37.7681 122.992 37.6723 123.912 37.6925C127.759 37.7681 131.731 38.7009 131.731 43.4862C131.731 46.2646 130.308 48.1051 128.332 48.8212C125.667 49.7893 120.055 49.7641 117.355 48.8212C117.141 48.7472 116.955 48.6076 116.824 48.4221C116.694 48.2367 116.624 48.0146 116.626 47.7875V44.762C116.625 44.6396 116.654 44.519 116.713 44.4113C116.771 44.3037 116.855 44.2127 116.958 44.1468C117.057 44.0705 117.175 44.023 117.299 44.0097C117.423 43.9963 117.549 44.0176 117.662 44.0712C119.065 44.7065 126.104 45.7201 126.019 43.5215C125.969 42.2155 124.591 42.3063 123.645 42.3013C119.759 42.266 115.721 41.1566 115.721 36.5327C115.721 33.7543 117.149 31.9138 119.125 31.1978C121.765 30.2548 126.939 30.2548 129.639 31.2129ZM181.43 43.461L183.11 48.2211C183.151 48.3276 183.165 48.4424 183.152 48.5557C183.139 48.6689 183.099 48.7773 183.035 48.8716C182.973 48.9645 182.889 49.0405 182.791 49.0925C182.692 49.1444 182.583 49.1708 182.471 49.1691H178.584C178.363 49.1701 178.146 49.101 177.965 48.9716C177.785 48.8421 177.65 48.6589 177.579 48.448L176.191 44.5956H172.807V48.4379C172.808 48.5333 172.79 48.6278 172.754 48.7162C172.718 48.8046 172.665 48.885 172.598 48.9529C172.532 49.0208 172.452 49.0748 172.365 49.1119C172.277 49.149 172.183 49.1684 172.088 49.1691H167.945C167.752 49.1678 167.568 49.0901 167.432 48.9532C167.297 48.8162 167.221 48.631 167.221 48.4379V32.7055C167.219 32.4664 167.265 32.2294 167.355 32.0081C167.445 31.7867 167.577 31.5853 167.745 31.4153C167.913 31.2454 168.112 31.1102 168.332 31.0175C168.552 30.9248 168.787 30.8764 169.026 30.875H177.85C184.603 30.875 185.795 40.1784 181.425 43.461H181.43ZM85.5311 31.3642L82.0113 38.8421L78.4412 31.3591C78.3714 31.2072 78.2592 31.0787 78.1182 30.9893C77.9773 30.8998 77.8135 30.8531 77.6467 30.8549H72.9503C72.7264 30.8575 72.5113 30.9428 72.3462 31.0944C72.1811 31.246 72.0775 31.4534 72.0553 31.6768L70.3959 48.3623C70.3841 48.4639 70.3941 48.5669 70.4254 48.6644C70.4566 48.7618 70.5083 48.8514 70.5769 48.9271C70.6426 49.0042 70.7244 49.0658 70.8165 49.1076C70.9087 49.1495 71.0088 49.1705 71.1099 49.1691H75.218C75.4423 49.1676 75.6579 49.0827 75.8233 48.9309C75.9886 48.779 76.0919 48.571 76.1131 48.3472L76.9779 39.6994L79.9949 46.1638C80.0672 46.3105 80.1801 46.4332 80.3201 46.5172C80.4601 46.6013 80.6213 46.6431 80.7844 46.6378H83.2382C83.4013 46.6436 83.5625 46.6013 83.702 46.5162C83.8414 46.431 83.9529 46.3068 84.0226 46.1587L86.9893 39.7346L87.8491 48.3472C87.8703 48.571 87.9735 48.779 88.1389 48.9309C88.3042 49.0827 88.5199 49.1676 88.7441 49.1691H92.8472C92.9484 49.1708 93.0487 49.15 93.1408 49.1081C93.233 49.0663 93.3148 49.0044 93.3802 48.9271C93.4506 48.8524 93.5038 48.763 93.5359 48.6655C93.5681 48.5679 93.5784 48.4644 93.5663 48.3623L91.8969 31.7222C91.8829 31.4951 91.7841 31.2817 91.62 31.1246C91.4559 30.9676 91.2387 30.8784 91.0119 30.875H86.3205C86.1568 30.8759 85.9965 30.922 85.8572 31.0083C85.7179 31.0946 85.6051 31.2177 85.5311 31.3642ZM101.782 30.8599H108.933C109.15 30.8596 109.361 30.9296 109.535 31.0596C109.709 31.1895 109.836 31.3724 109.898 31.581L114.967 48.2211C115.001 48.3303 115.009 48.446 114.991 48.559C114.973 48.6719 114.928 48.779 114.861 48.8716C114.795 48.9645 114.707 49.0401 114.606 49.0919C114.504 49.1437 114.392 49.1701 114.278 49.1691H110.396C110.179 49.1694 109.968 49.0994 109.794 48.9694C109.62 48.8395 109.492 48.6566 109.43 48.448L108.727 46.1688H101.994L101.29 48.448C101.228 48.6566 101.1 48.8395 100.926 48.9694C100.752 49.0994 100.541 49.1694 100.324 49.1691H96.4424C96.3284 49.169 96.2161 49.1419 96.1145 49.0901C96.0129 49.0382 95.925 48.963 95.8578 48.8706C95.7907 48.7782 95.7463 48.6713 95.7281 48.5584C95.71 48.4455 95.7187 48.33 95.7536 48.2211L100.822 31.581C100.886 31.3761 101.014 31.1971 101.187 31.0701C101.36 30.9432 101.568 30.8748 101.782 30.875V30.8599Z" fill="#1A171B"/>
<path fill-rule="evenodd" clip-rule="evenodd" d="M41.0761 10.7764C40.8397 11.8635 40.2805 12.8532 39.4721 13.6153C39.36 13.7255 39.2219 13.8056 39.0707 13.8479C38.9195 13.8902 38.76 13.8934 38.6072 13.8573C37.5255 13.621 36.5404 13.062 35.7813 12.2538C35.6714 12.1414 35.5916 12.003 35.5494 11.8513C35.5072 11.6997 35.5039 11.5398 35.54 11.3865C35.7773 10.3009 36.3344 9.3119 37.139 8.54761C37.2518 8.43853 37.3899 8.3593 37.5409 8.31704C37.6919 8.27479 37.851 8.27085 38.0038 8.30557C39.0864 8.5436 40.0726 9.10224 40.8348 9.90908C40.9425 10.024 41.0207 10.1634 41.0627 10.3154C41.1048 10.4674 41.1094 10.6273 41.0761 10.7814V10.7764ZM48.1911 19.3536C47.4519 20.1803 46.481 20.7638 45.4055 21.0277C45.2532 21.0675 45.0934 21.0684 44.9406 21.0306C44.7878 20.9927 44.6469 20.9172 44.5305 20.8109C43.7062 20.0696 43.1243 19.0959 42.8611 18.0174C42.8215 17.8654 42.8205 17.7059 42.8583 17.5535C42.896 17.4011 42.9714 17.2606 43.0774 17.145C43.8173 16.3182 44.7877 15.7332 45.863 15.4659C46.0153 15.4257 46.1752 15.4244 46.3281 15.4623C46.481 15.5002 46.6219 15.576 46.738 15.6827C47.5601 16.4267 48.1429 17.3991 48.4124 18.4762C48.4483 18.6279 48.4469 18.7861 48.4083 18.9372C48.3698 19.0883 48.2953 19.2277 48.1911 19.3435V19.3536ZM19.6858 8.54257C20.4904 9.30686 21.0474 10.2959 21.2848 11.3815C21.3208 11.5347 21.3176 11.6946 21.2754 11.8463C21.2332 11.9979 21.1534 12.1364 21.0434 12.2488C20.2844 13.057 19.2993 13.616 18.2175 13.8523C18.0643 13.889 17.9044 13.8865 17.7524 13.8451C17.6004 13.8037 17.4612 13.7247 17.3476 13.6153C16.5439 12.8524 15.9869 11.8652 15.7486 10.7814C15.714 10.6273 15.718 10.4671 15.7601 10.3149C15.8022 10.1627 15.8812 10.0233 15.99 9.90908C16.7519 9.10458 17.7358 8.54628 18.8159 8.30557C18.9691 8.26978 19.1288 8.2727 19.2806 8.31406C19.4325 8.35543 19.5717 8.43394 19.6858 8.54257ZM10.9617 15.4558C12.0382 15.7259 13.0088 16.3145 13.7474 17.145C13.8534 17.2606 13.9287 17.4011 13.9665 17.5535C14.0043 17.7059 14.0033 17.8654 13.9636 18.0174C13.7008 19.0973 13.1169 20.0715 12.2892 20.8109C12.1739 20.9172 12.0338 20.9927 11.8818 21.0306C11.7298 21.0685 11.5708 21.0675 11.4193 21.0277C10.3438 20.7638 9.37281 20.1803 8.63362 19.3536C8.52788 19.2367 8.45241 19.0956 8.41383 18.9426C8.37525 18.7896 8.37475 18.6295 8.41237 18.4762C8.67894 17.3979 9.26227 16.4247 10.0868 15.6827C10.2019 15.5742 10.3424 15.4966 10.4953 15.4569C10.6482 15.4173 10.8086 15.4169 10.9617 15.4558ZM30.6726 6.83822C30.9975 7.89615 30.9975 9.02763 30.6726 10.0856C30.6271 10.2368 30.5449 10.3745 30.4335 10.4862C30.3221 10.5979 30.1848 10.6803 30.034 10.726C28.9769 11.0488 27.8479 11.0488 26.7908 10.726C26.639 10.681 26.5007 10.599 26.3884 10.4872C26.276 10.3754 26.1931 10.2374 26.1471 10.0856C25.8202 9.02451 25.8202 7.88919 26.1471 6.82813C26.1918 6.67644 26.2737 6.53837 26.3852 6.42652C26.4968 6.31466 26.6345 6.23258 26.7857 6.18774C27.8421 5.85995 28.9726 5.85995 30.029 6.18774C30.1823 6.23277 30.3218 6.31606 30.4344 6.42981C30.5469 6.54357 30.6289 6.68408 30.6726 6.83822Z" fill="white"/>
<path fill-rule="evenodd" clip-rule="evenodd" d="M29.6365 34.1123C31.5594 31.2382 32.8012 27.9611 33.2669 24.5316C33.2758 24.4679 33.3015 24.4077 33.3412 24.3572C33.381 24.3067 33.4334 24.2677 33.4932 24.2442C33.5518 24.2173 33.6167 24.2073 33.6806 24.2153C33.7446 24.2233 33.805 24.2491 33.8552 24.2896C35.1615 25.3059 36.6377 26.0811 38.2147 26.5789C38.3175 26.6105 38.4044 26.6803 38.4577 26.774C38.511 26.8677 38.5266 26.9783 38.5013 27.0831C37.6988 31.0438 36.0578 34.7855 33.6893 38.0555C33.6545 38.1058 33.6098 38.1483 33.5579 38.1804C33.5059 38.2125 33.448 38.2335 33.3876 38.2421C33.3266 38.2506 33.2646 38.247 33.2051 38.2314C33.1455 38.2158 33.0897 38.1886 33.0406 38.1513C31.7965 37.1689 30.6649 36.051 29.6666 34.8183C29.5855 34.72 29.5387 34.5978 29.5333 34.4704C29.5278 34.3429 29.5641 34.2172 29.6365 34.1123Z" fill="white"/>
<path fill-rule="evenodd" clip-rule="evenodd" d="M28.078 43.3652C23.0516 39.2243 19.6028 33.472 18.3131 27.0781C18.2878 26.9732 18.3034 26.8627 18.3567 26.769C18.41 26.6753 18.4969 26.6055 18.5997 26.5738C20.1799 26.0787 21.6596 25.3052 22.9692 24.2896C23.0194 24.2491 23.0799 24.2233 23.1438 24.2153C23.2078 24.2073 23.2727 24.2173 23.3313 24.2442C23.391 24.2677 23.4434 24.3067 23.4832 24.3572C23.523 24.4077 23.5486 24.4679 23.5576 24.5316C24.3595 30.4053 27.4156 35.7333 32.0755 39.3817C32.1237 39.4198 32.1637 39.4674 32.193 39.5215C32.2224 39.5756 32.2404 39.6351 32.246 39.6965C32.2517 39.7578 32.2448 39.8196 32.2259 39.8782C32.2069 39.9368 32.1763 39.9909 32.1358 40.0372C31.0992 41.2381 29.9657 42.3512 28.7467 43.3652C28.6547 43.4475 28.5357 43.4929 28.4124 43.4929C28.2891 43.4929 28.1701 43.4475 28.078 43.3652Z" fill="white"/>
<path fill-rule="evenodd" clip-rule="evenodd" d="M48.6739 29.1554C49.3542 28.7643 49.8992 28.1743 50.2361 27.4643C50.5731 26.7542 50.6859 25.958 50.5595 25.1819C50.552 25.1237 50.5295 25.0684 50.4943 25.0216C50.459 24.9747 50.4122 24.9379 50.3584 24.9147C50.3049 24.8918 50.2466 24.8826 50.1886 24.8879C50.1307 24.8932 50.075 24.9128 50.0265 24.9449C47.2124 26.7803 43.8344 27.5408 40.508 27.088C40.403 27.0732 40.2963 27.0995 40.2102 27.1615C40.1241 27.2234 40.065 27.3163 40.0454 27.4208C39.5504 29.8645 38.7513 32.2362 37.667 34.4802C37.6422 34.5366 37.6294 34.5976 37.6294 34.6592C37.6294 34.7209 37.6422 34.7818 37.667 34.8382C37.687 34.8957 37.7188 34.9483 37.7604 34.9926C37.802 35.0369 37.8524 35.0719 37.9084 35.0954C40.6301 36.2958 43.5594 36.9519 46.5319 37.0267C46.6385 37.0342 46.7447 37.0074 46.8351 36.9503C46.9255 36.8932 46.9954 36.8087 47.0347 36.709C48.0664 34.3178 48.6298 31.7499 48.694 29.1453" fill="white"/>
<path fill-rule="evenodd" clip-rule="evenodd" d="M32.6485 23.1953C33.6843 23.039 43.2883 21.3397 39.8842 18.5814C36.9744 16.2353 33.6299 14.4906 30.0438 13.4482C28.9823 13.1201 27.847 13.1201 26.7855 13.4482C23.1939 14.493 19.8466 16.2468 16.9401 18.6067C13.536 21.3598 23.1299 23.0591 24.1758 23.1953C24.915 25.2627 26.4888 28.0663 28.4096 28.0663C30.3304 28.0663 31.9294 25.2627 32.6485 23.1953Z" fill="white"/>
<path fill-rule="evenodd" clip-rule="evenodd" d="M9.81017 36.699C8.77722 34.3082 8.21382 31.7401 8.15083 29.1353C7.4729 28.7433 6.92993 28.1537 6.59404 27.4449C6.25814 26.7361 6.14521 25.9416 6.27026 25.1669C6.27885 25.1086 6.30204 25.0535 6.33767 25.0067C6.37329 24.9599 6.42018 24.9229 6.47394 24.8992C6.5277 24.8756 6.58658 24.866 6.64506 24.8713C6.70353 24.8767 6.75969 24.8968 6.80828 24.9299C9.61475 26.7701 12.9899 27.5312 16.3117 27.0729C16.4173 27.058 16.5246 27.0842 16.6116 27.1461C16.6985 27.2079 16.7586 27.3009 16.7794 27.4057C17.2734 29.849 18.0708 32.2207 19.1527 34.4652C19.1775 34.5216 19.1903 34.5826 19.1903 34.6442C19.1903 34.7058 19.1775 34.7668 19.1527 34.8232C19.1325 34.8813 19.1 34.9343 19.0575 34.9787C19.0149 35.0231 18.9634 35.0578 18.9063 35.0804C16.1929 36.28 13.2723 36.9377 10.308 37.0167C10.2014 37.0242 10.0952 36.9974 10.0047 36.9403C9.91433 36.8832 9.84442 36.7987 9.80514 36.699" fill="white"/>
<path fill-rule="evenodd" clip-rule="evenodd" d="M38.0389 48.8671C35.037 50.3047 31.7514 51.0475 28.4249 51.0406C27.8617 51.0406 27.3036 51.0406 26.7555 50.9801C26.6987 50.9763 26.6436 50.9598 26.594 50.9319C26.5444 50.904 26.5016 50.8653 26.4689 50.8187C26.4346 50.7733 26.4113 50.7205 26.4008 50.6645C26.3903 50.6085 26.393 50.5508 26.4085 50.496C27.1476 47.6894 28.7918 45.207 31.0847 43.4356C33.3776 41.6641 36.1905 40.7032 39.0848 40.7026C41.6442 40.7026 42.9264 41.9281 42.9264 43.5065C42.9264 45.6094 41.3274 47.2988 38.0389 48.8671Z" fill="white"/>
<path fill-rule="evenodd" clip-rule="evenodd" d="M18.7808 48.8673C20.5377 49.7085 22.3974 50.3138 24.312 50.6677C24.4226 50.6835 24.5351 50.6578 24.628 50.5954C24.7208 50.5331 24.7874 50.4384 24.8148 50.3298C25.2556 48.5172 26.0372 46.8056 27.1177 45.2869C27.1939 45.1875 27.2304 45.0632 27.2202 44.9383C27.21 44.8134 27.1537 44.6967 27.0624 44.6111C25.8443 43.3674 24.391 42.3798 22.7877 41.7062C21.1844 41.0325 19.4632 40.6863 17.7249 40.6877C15.1655 40.6877 13.8833 41.9132 13.8833 43.4916C13.8833 45.5945 15.4823 47.2839 18.7658 48.8522" fill="white"/>
</svg>
